<svg width="198" height="88" xmlns="http://www.w3.org/2000/svg" xmlns:xlink="http://www.w3.org/1999/xlink"><defs><path id="a" d="M0 0h14.216v8H0z"/><path id="c" d="M0 0h14.216v8H0z"/></defs><g fill="none" fill-rule="evenodd"><path d="M4 7l5 5 5-5M4 29l5-5 5 5" stroke="#767579" stroke-linecap="round" stroke-linejoin="round" stroke-width="2"/><g fill="none" fill-opacity="0" stroke="#3B393F"><path d="M20.866 10.883l-.53 4.773 4.773-.53 8.237-8.237a1 1 0 0 0 0-1.414l-2.829-2.829a1 1 0 0 0-1.414 0l-8.237 8.237z" stroke-width="2"/><path d="M25.992 5.05l.707-.707 4.95 4.95-.707.706z"/></g><g fill="none" fill-opacity="0" stroke="#FFF"><path d="M20.866 28.883l-.53 4.773 4.773-.53 8.237-8.237a1 1 0 0 0 0-1.414l-2.829-2.829a1 1 0 0 0-1.414 0l-8.237 8.237z" stroke-width="2"/><path d="M25.992 23.05l.707-.707 4.95 4.95-.707.706z"/></g><g transform="translate(37 1)" fill="#DA2D19"><rect transform="rotate(45 8 8)" x="7" width="2" height="16" rx="1"/><rect transform="scale(-1 1) rotate(45 0 -11.314)" x="7" width="2" height="16" rx="1"/></g><g transform="translate(55 19)"><rect fill="#FFF" x="2" y="14" width="12" height="2" rx="1"/><rect fill="#FFF" x="7" width="2" height="11" rx="1"/><path stroke="#FFF" stroke-width="2" stroke-linecap="round" stroke-linejoin="round" d="M5 8l3 3 3-3"/></g><g transform="translate(37 19)" fill="#FFF"><rect transform="rotate(45 8 8)" x="7" width="2" height="16" rx="1"/><rect transform="scale(-1 1) rotate(45 0 -11.314)" x="7" width="2" height="16" rx="1"/></g><g transform="translate(55 1)"><rect fill="#3B393F" x="2" y="14" width="12" height="2" rx="1"/><rect fill="#3B393F" x="7" width="2" height="11" rx="1"/><path stroke="#3B393F" stroke-width="2" stroke-linecap="round" stroke-linejoin="round" d="M5 8l3 3 3-3"/></g><g transform="translate(73 1)"><circle stroke="#767579" fill="none" cx="8" cy="8" r="7.5"/><path d="M8.46 10H7.03v-.485c0-.858.356-1.33 1.256-2.09l.038-.032c.587-.497.747-.71.747-1.03 0-.571-.482-1.03-1.071-1.03s-1.071.459-1.071 1.03H5.5C5.5 5.062 6.616 4 8 4s2.5 1.06 2.5 2.364c0 .822-.346 1.28-1.217 2.017l-.038.032c-.617.52-.786.745-.786 1.102V10zm-1.431.667h1.428V12H7.03v-1.333z" fill="#767579" fill-rule="nonzero"/></g><g transform="translate(91 1)"><circle stroke="#FFF" fill="none" cx="8" cy="8" r="7.5"/><path d="M8.46 10H7.03v-.485c0-.858.356-1.33 1.256-2.09l.038-.032c.587-.497.747-.71.747-1.03 0-.571-.482-1.03-1.071-1.03s-1.071.459-1.071 1.03H5.5C5.5 5.062 6.616 4 8 4s2.5 1.06 2.5 2.364c0 .822-.346 1.28-1.217 2.017l-.038.032c-.617.52-.786.745-.786 1.102V10zm-1.431.667h1.428V12H7.03v-1.333z" fill="#FFF" fill-rule="nonzero"/></g><g transform="translate(73 19)"><circle fill="#767579" cx="8" cy="8" r="8"/><path d="M8.46 10H7.03v-.485c0-.858.356-1.33 1.256-2.09l.038-.032c.587-.497.747-.71.747-1.03 0-.571-.482-1.03-1.071-1.03s-1.071.459-1.071 1.03H5.5C5.5 5.062 6.616 4 8 4s2.5 1.06 2.5 2.364c0 .822-.346 1.28-1.217 2.017l-.038.032c-.617.52-.786.745-.786 1.102V10zm-1.431.667h1.428V12H7.03v-1.333z" fill="#FFF" fill-rule="nonzero"/></g><g transform="translate(91 19)"><circle fill="#FFF" cx="8" cy="8" r="8"/><path d="M8.46 10H7.03v-.485c0-.858.356-1.33 1.256-2.09l.038-.032c.587-.497.747-.71.747-1.03 0-.571-.482-1.03-1.071-1.03s-1.071.459-1.071 1.03H5.5C5.5 5.062 6.616 4 8 4s2.5 1.06 2.5 2.364c0 .822-.346 1.28-1.217 2.017l-.038.032c-.617.52-.786.745-.786 1.102V10zm-1.431.667h1.428V12H7.03v-1.333z" fill="#767579" fill-rule="nonzero"/></g><g transform="translate(109 19)"><circle stroke="#0E920E" stroke-width="2" fill="none" cx="8" cy="8" r="7"/><circle fill="#0E920E" cx="8" cy="8" r="4"/></g><path fill="#FF4C00" d="M131 4h8v10l-4-3-4 3z"/><g stroke-width="2" stroke="#FF825C" stroke-linecap="round" stroke-linejoin="round"><path d="M13 46.003C13 42.498 15.99 42 18 42h3.51c.27 0 .49.226.49.494v12.012a.498.498 0 0 1-.501.494H18c-3.998 0-5 2-5 2V46.004zM13 46.003C13 42.498 10.01 42 8 42H4.49a.495.495 0 0 0-.49.494v12.012c0 .273.226.494.501.494H8c3.998 0 5 2 5 2V46.004z"/></g><path d="M32 55V42.5a2.5 2.5 0 0 1 2.5-2.5H45a1 1 0 0 1 1 1v11a1 1 0 0 1-1 1h-6" stroke="#767579" stroke-width="2" fill="none" stroke-linecap="round" stroke-linejoin="round"/><path d="M46 58H34.5a2.5 2.5 0 1 1 0-5H41" stroke="#767579" stroke-width="2" fill="none" stroke-linecap="round" stroke-linejoin="round"/><path fill="#767579" d="M43 52h2v7h-2z"/><path d="M65.364 47.95l5.657-5.657a1 1 0 1 1 1.414 1.414l-5.657 5.657 5.657 5.657a1 1 0 1 1-1.414 1.414l-5.657-5.657-5.657 5.657a1 1 0 0 1-1.414-1.414l5.657-5.657-5.657-5.657a1 1 0 0 1 1.414-1.414l5.657 5.657z" fill="#9D9C9F"/><path d="M65.364 73.95l5.657-5.657a1 1 0 1 1 1.414 1.414l-5.657 5.657 5.657 5.657a1 1 0 1 1-1.414 1.414l-5.657-5.657-5.657 5.657a1 1 0 0 1-1.414-1.414l5.657-5.657-5.657-5.657a1 1 0 1 1 1.414-1.414l5.657 5.657z" fill="#DA2D19"/><path fill="none" d="M80 38h22v22H80z" fill-opacity="0" stroke="#C4C4C6" stroke-width="2"/><path fill="#0E920E" d="M79 63h24v24H79z"/><path stroke="#FFF" stroke-width="2" stroke-linecap="round" stroke-linejoin="round" d="M85 75l4 4 8-8"/><circle cx="8" cy="8" r="7" fill="none" transform="translate(109 1)" fill-opacity="0" stroke="#C4C4C6" stroke-width="2"/><path fill="#3B393F" d="M148 7h10l-5 5zM148 30l5-5 5 5z"/><g><path fill="none" opacity=".465" d="M162 0h18v18h-18z"/><path d="M175.896 3l-7.13 7.551-2.665-2.821L164 9.957 168.763 15l.616-.649L178 5.224z" fill="#41AD49" fill-rule="nonzero"/></g><g fill="#E84C3D" fill-rule="nonzero"><path d="M189 1a8 8 0 1 0 0 16 8 8 0 0 0 0-16zm1 13h-2v-2h2v2zm0-3h-2V4h2v7z"/></g><g><g transform="translate(106 45)"><mask id="b" fill="#fff"><use xlink:href="#a"/></mask><path d="M14.056 2.837a4.086 4.086 0 0 0-.926-1.662C12.46.45 11.535 0 10.518 0h-6.82C1.664 0 0 1.8 0 4c0 1.1.416 2.1 1.086 2.825C1.756 7.55 2.681 8 3.698 8h4.147a5.145 5.145 0 0 1-1.272-1.702H3.697c-.563 0-1.096-.24-1.499-.677A2.377 2.377 0 0 1 1.574 4c0-.61.222-1.185.625-1.621a2.032 2.032 0 0 1 1.5-.677h6.819c.563 0 1.096.24 1.5.677.128.14.239.293.33.458.192.35.295.749.295 1.163 0 .414-.103.813-.296 1.163h1.709a4.263 4.263 0 0 0 0-2.326" fill="#767579" mask="url(#b)"/></g><g transform="translate(113.117 45)"><mask id="d" fill="#fff"><use xlink:href="#c"/></mask><path d="M13.13 1.175C12.46.45 11.535 0 10.518 0H6.372a5.146 5.146 0 0 1 1.272 1.702h2.874c.563 0 1.096.24 1.5.677.403.436.625 1.012.625 1.621 0 .61-.222 1.185-.626 1.621a2.032 2.032 0 0 1-1.499.677h-6.82c-.563 0-1.096-.24-1.499-.677a2.325 2.325 0 0 1-.33-.458A2.407 2.407 0 0 1 1.574 4c0-.414.102-.813.295-1.163H.161a4.263 4.263 0 0 0 0 2.326c.179.635.501 1.203.925 1.662C1.756 7.55 2.681 8 3.698 8h6.82c2.034 0 3.698-1.8 3.698-4 0-1.1-.416-2.1-1.086-2.825" fill="#767579" mask="url(#d)"/></g></g></g></svg>
