<svg width="219" height="28" xmlns="http://www.w3.org/2000/svg"><g fill-rule="nonzero" fill="none"><g fill="#000"><path d="M217.374.283l1.343 1.343a.939.939 0 0 1 0 1.343L198.97 22.717a.939.939 0 0 1-1.343 0l-1.343-1.343a.939.939 0 0 1 0-1.343L216.03.283a.939.939 0 0 1 1.343 0zM206.348.287l1.365 1.365a.954.954 0 0 1 0 1.364l-14.697 14.697a.954.954 0 0 1-1.364 0l-1.365-1.365a.954.954 0 0 1 0-1.364L204.984.287c.383-.383 1.005-.383 1.364 0zM195.435.272l1.293 1.293a.904.904 0 0 1 0 1.293l-8.87 8.87a.904.904 0 0 1-1.293 0l-1.293-1.293a.904.904 0 0 1 0-1.293l8.87-8.87c.363-.363.953-.363 1.293 0zM181 26.968l.723-6.15a.943.943 0 0 1 1.06-.81c.217.023.41.116.578.255l5.35 5.133a.895.895 0 0 1 0 1.317.88.88 0 0 1-.506.255l-6.072 1.017a.953.953 0 0 1-1.109-.763c-.024-.07-.024-.162-.024-.254z"/></g><g transform="translate(0 9)"><path d="M3.518 4.812a53.615 53.615 0 0 1-.303 3.58c-.093.837-.233 1.65-.443 2.464a4.94 4.94 0 0 1-.582 1.465c-.256.488-.769.79-1.305.79-.093 0-.186 0-.28-.023l-.279-.07L0 15.692c.233.093.466.186.699.232.28.047.582.093.862.07.256 0 .512-.023.769-.07.303-.046.582-.163.838-.279.303-.14.583-.325.816-.535.28-.255.512-.534.722-.86.35-.58.63-1.232.816-1.883.232-.813.396-1.65.512-2.487.117-.953.233-2 .303-3.185.07-1.186.14-2.487.21-3.929H9.9v13.112H13V0H3.681c-.047 1.813-.093 3.44-.163 4.812zM18.909 10.162l-.935 1.555h-.096l.12-1.487V5H15v11h1.894l4.125-4.982 1.007-1.6h.072l-.12 1.555V16H25V5h-1.894zM26 7.525h3.082V16h2.903V7.525H35V5h-9zM44.83.947a5.845 5.845 0 0 0-2.12-.762A15.91 15.91 0 0 0 40.358 0c-.745 0-1.514.023-2.26.092-.769.07-1.468.162-2.097.277V16h3.099v-5.426c.07.023.21.023.373.046.163.024.35.024.536.024h.885c.769 0 1.538-.093 2.26-.3a5.693 5.693 0 0 0 1.957-.947 4.641 4.641 0 0 0 1.375-1.686c.373-.785.536-1.639.513-2.516 0-1.085-.21-1.986-.606-2.678-.396-.624-.909-1.178-1.561-1.57zm-1.397 5.656c-.163.346-.443.624-.746.854a3.044 3.044 0 0 1-1.072.416c-.396.07-.792.115-1.211.115h-.676c-.14 0-.256-.023-.373-.023a1.18 1.18 0 0 1-.28-.046V2.794c.164-.023.373-.047.653-.07.28-.023.56-.023.862-.023.396 0 .77.046 1.142.116.35.069.699.208 1.002.415.303.208.536.462.699.785.186.37.28.808.28 1.224.023.416-.07.9-.28 1.362zM56.63 5.979a3.78 3.78 0 0 0-1.462-.746A5.857 5.857 0 0 0 53.47 5c-1.721 0-3.065.49-4.032 1.491C48.472 7.493 48 8.984 48 10.988c0 1.864.424 3.332 1.273 4.404.85 1.072 2.193 1.608 4.032 1.608.85 0 1.698-.117 2.5-.373.683-.186 1.296-.512 1.862-.932l-.896-1.84c-.4.186-.801.349-1.226.489a5.15 5.15 0 0 1-1.674.28c-.99 0-1.721-.234-2.17-.723-.447-.49-.754-1.212-.8-2.167h6.884c.071-.396.142-.769.165-1.142.047-.35.047-.675.047-1.025a5.915 5.915 0 0 0-.377-2.214 3.13 3.13 0 0 0-.99-1.374zm-1.344 3.938l-4.268-.047c.024-.676.26-1.305.684-1.84.377-.467.825-.7 1.745-.723a1.74 1.74 0 0 1 1.509.699c.33.466.4 1.095.33 1.91zM64.749 14.652c-1.968 0-2.907-1.198-2.907-3.617 0-2.583 1.224-3.757 3.125-3.757.503.023 1.006.07 1.508.188l.394-2.16A9.094 9.094 0 0 0 64.486 5C60.661 5 59 7.795 59 10.894c0 3.1 1.42 6.106 5.246 6.106.94 0 1.858-.14 2.754-.446l-.35-2.067c-.022-.023-1.267.165-1.901.165z" fill="#000"/><circle fill="#000" cx="71.5" cy="6.5" r="1.5"/><circle fill="#000" cx="71.5" cy="14.5" r="1.5"/><path d="M88.03 15.711a4.685 4.685 0 0 1-1.803.757c-.73.166-1.507.237-2.26.237a7.704 7.704 0 0 1-2.65-.45 5.6 5.6 0 0 1-2.214-1.443 7.068 7.068 0 0 1-1.53-2.603 11.7 11.7 0 0 1-.571-3.857c0-1.585.205-2.886.64-3.951a7.246 7.246 0 0 1 1.643-2.58 5.816 5.816 0 0 1 2.26-1.395A7.445 7.445 0 0 1 84.036 0c.753 0 1.507.047 2.26.19a8.658 8.658 0 0 1 1.53.425l-.593 2.65c-.389-.189-.8-.307-1.21-.355a10.32 10.32 0 0 0-1.69-.118 3.628 3.628 0 0 0-2.969 1.349c-.753.899-1.119 2.295-1.119 4.188 0 .757.092 1.514.274 2.248.16.638.434 1.23.8 1.75.365.474.822.876 1.347 1.136a3.997 3.997 0 0 0 1.872.403 5.107 5.107 0 0 0 1.69-.213 5.355 5.355 0 0 0 1.187-.521l.617 2.58zm1.736-10.127a9.842 9.842 0 0 1 2.1-.662c.846-.166 1.69-.237 2.558-.237a5.446 5.446 0 0 1 1.941.284 2.838 2.838 0 0 1 1.872 2.082c.138.544.206 1.088.183 1.656 0 .663-.023 1.349-.068 2.035a30.113 30.113 0 0 0-.069 2.011c0 .663.023 1.302.046 1.917a7.66 7.66 0 0 0 .342 1.75H96.32l-.456-1.584h-.114c-.32.497-.731.922-1.233 1.23a3.635 3.635 0 0 1-2.033.52c-.48 0-.959-.07-1.393-.236a3.034 3.034 0 0 1-1.758-1.751c-.16-.426-.25-.9-.25-1.372a3.217 3.217 0 0 1 .456-1.775c.32-.497.776-.9 1.301-1.16.64-.33 1.325-.52 2.055-.615.89-.118 1.759-.142 2.65-.094.113-.852.045-1.467-.184-1.846-.228-.378-.73-.568-1.507-.568-.616 0-1.233.071-1.826.19-.548.094-1.096.236-1.599.473l-.662-2.248zm3.676 8.542a2.22 2.22 0 0 0 1.37-.402c.297-.237.571-.521.754-.852v-1.49a8.254 8.254 0 0 0-1.324-.025 4.465 4.465 0 0 0-1.12.213 1.988 1.988 0 0 0-.776.45c-.182.19-.297.473-.297.757a1.31 1.31 0 0 0 .366.994c.297.236.662.378 1.027.355zm16.92-2.982l.183-2.39h-.114l-.89 1.965-2.079 3.549h-1.05l-2.283-3.55-.845-1.963h-.137l.297 2.366v5.276h-2.58V4.922h2.99l2.558 4.306.617 1.443h.09l.64-1.49 2.352-4.26h3.014v11.476h-2.763v-5.253zm11.965.024l.115-1.633h-.069l-.959 1.68-3.95 5.182h-1.827V4.922h2.9v5.465l-.137 1.562h.091l.914-1.633 3.996-5.394h1.826v11.475h-2.9v-5.229zm6.577.473V9.56h1.347c.456.024.89-.094 1.278-.331a.992.992 0 0 0 .503-.852c.023-.355-.137-.71-.457-.875a2.696 2.696 0 0 0-1.347-.26 4.81 4.81 0 0 0-1.53.236c-.365.118-.73.284-1.073.473l-.617-2.271c.548-.308 1.142-.52 1.759-.686a9.847 9.847 0 0 1 2.351-.284c1.28 0 2.215.236 2.855.733.639.497.936 1.207.936 2.13 0 .26-.046.52-.091.78-.069.26-.183.521-.32.758a2.986 2.986 0 0 1-.548.662 2.33 2.33 0 0 1-.777.45v.094c.777.19 1.348.497 1.667.97.571.97.64 2.177.206 3.242a3.065 3.065 0 0 1-.868 1.088c-.456.332-.936.592-1.484.734a7.893 7.893 0 0 1-2.1.284 7.165 7.165 0 0 1-2.124-.26 6.99 6.99 0 0 1-1.507-.616l.616-2.318c.388.213.8.378 1.233.473.525.118 1.073.19 1.599.19 1.347 0 2.009-.45 2.009-1.326a.9.9 0 0 0-.525-.875c-.343-.19-1.005-.284-1.941-.284l-1.05.023zM148.38 19h-2.1l-.343-2.603h-7.467L138.128 19h-2.1v-5.253h1.301c.183-.284.32-.568.457-.852.228-.544.411-1.088.548-1.656.205-.852.365-1.727.48-2.603.136-1.23.205-2.46.205-3.69h7.718v8.825h1.621l.023 5.229zm-4.498-5.11V7.452h-2.33c-.022.545-.09 1.136-.16 1.751a22.65 22.65 0 0 1-.273 1.798 24.285 24.285 0 0 1-.388 1.633 6.426 6.426 0 0 1-.48 1.254h3.63zm6.028-8.306a9.842 9.842 0 0 1 2.1-.662c.845-.166 1.69-.237 2.558-.237a5.446 5.446 0 0 1 1.94.284 2.838 2.838 0 0 1 1.873 2.082c.137.544.206 1.088.183 1.656 0 .663-.023 1.349-.069 2.035a30.113 30.113 0 0 0-.068 2.011c0 .663.023 1.302.046 1.917a7.66 7.66 0 0 0 .342 1.75h-2.352l-.457-1.584h-.114c-.32.497-.73.922-1.233 1.23a3.635 3.635 0 0 1-2.032.52c-.48 0-.959-.07-1.393-.236a3.034 3.034 0 0 1-1.758-1.751c-.16-.426-.251-.9-.251-1.372a3.217 3.217 0 0 1 .456-1.775c.32-.497.777-.9 1.302-1.16a6.189 6.189 0 0 1 2.032-.638c.89-.119 1.758-.142 2.649-.095.114-.852.046-1.467-.183-1.845-.228-.379-.708-.568-1.484-.568-.616 0-1.233.07-1.827.189-.548.095-1.096.237-1.598.473l-.662-2.224zm3.653 8.542a2.22 2.22 0 0 0 1.37-.402c.297-.237.571-.521.754-.852v-1.49a8.254 8.254 0 0 0-1.325-.025 4.465 4.465 0 0 0-1.118.213 1.988 1.988 0 0 0-.777.45c-.182.19-.297.473-.297.757a1.31 1.31 0 0 0 .366.994c.297.236.662.378 1.027.355zm15.413-6.578h-3.082v8.826h-2.969V7.548h-3.174V4.922H169l-.023 2.626z" fill="#FF4B00"/></g></g></svg>